<svg xmlns="http://www.w3.org/2000/svg" width="192" height="192" viewBox="0 0 192 192">
  <rect width="192" height="192" rx="40" fill="#0b0b0f"/>
  <rect x="16" y="16" width="160" height="160" rx="32" fill="#13131a"/>
  <path d="M56 48h-8a8 8 0 0 0-8 8v8" stroke="#22c77e" stroke-width="4" fill="none" stroke-linecap="round"/>
  <path d="M136 48h8a8 8 0 0 1 8 8v8" stroke="#22c77e" stroke-width="4" fill="none" stroke-linecap="round"/>
  <path d="M56 144h-8a8 8 0 0 1-8-8v-8" stroke="#22c77e" stroke-width="4" fill="none" stroke-linecap="round"/>
  <path d="M136 144h8a8 8 0 0 0 8-8v-8" stroke="#22c77e" stroke-width="4" fill="none" stroke-linecap="round"/>
  <line x1="56" y1="96" x2="136" y2="96" stroke="#22c77e" stroke-width="3" stroke-linecap="round"/>
  <text x="96" y="85" font-family="system-ui" font-weight="bold" font-size="24" fill="#f0f0f4" text-anchor="middle">Ingred</text>
  <text x="96" y="120" font-family="system-ui" font-weight="bold" font-size="24" fill="#22c77e" text-anchor="middle">Scan</text>
</svg>
